<svg id="visual" viewBox="0 0 900 600" width="900" height="600" xmlns="http://www.w3.org/2000/svg" xmlns:xlink="http://www.w3.org/1999/xlink" version="1.1"><path d="M0 405L21.5 397.2C43 389.3 86 373.7 128.8 365.8C171.7 358 214.3 358 257.2 366.5C300 375 343 392 385.8 400C428.7 408 471.3 407 514.2 397.7C557 388.3 600 370.7 642.8 360.3C685.7 350 728.3 347 771.2 356C814 365 857 386 878.5 396.5L900 407L900 601L878.5 601C857 601 814 601 771.2 601C728.3 601 685.7 601 642.8 601C600 601 557 601 514.2 601C471.3 601 428.7 601 385.8 601C343 601 300 601 257.2 601C214.3 601 171.7 601 128.8 601C86 601 43 601 21.5 601L0 601Z" fill="#ffed00"></path><path d="M0 441L21.5 437.7C43 434.3 86 427.7 128.8 424.7C171.7 421.7 214.3 422.3 257.2 426.5C300 430.7 343 438.3 385.8 446.7C428.7 455 471.3 464 514.2 466.2C557 468.3 600 463.7 642.8 457.5C685.7 451.3 728.3 443.7 771.2 447C814 450.3 857 464.7 878.5 471.8L900 479L900 601L878.5 601C857 601 814 601 771.2 601C728.3 601 685.7 601 642.8 601C600 601 557 601 514.2 601C471.3 601 428.7 601 385.8 601C343 601 300 601 257.2 601C214.3 601 171.7 601 128.8 601C86 601 43 601 21.5 601L0 601Z" fill="#ff9600"></path><path d="M0 495L21.5 497.3C43 499.7 86 504.3 128.8 505.3C171.7 506.3 214.3 503.7 257.2 510.2C300 516.7 343 532.3 385.8 530C428.7 527.7 471.3 507.3 514.2 503.5C557 499.7 600 512.3 642.8 522C685.7 531.7 728.3 538.3 771.2 538.3C814 538.3 857 531.7 878.5 528.3L900 525L900 601L878.5 601C857 601 814 601 771.2 601C728.3 601 685.7 601 642.8 601C600 601 557 601 514.2 601C471.3 601 428.7 601 385.8 601C343 601 300 601 257.2 601C214.3 601 171.7 601 128.8 601C86 601 43 601 21.5 601L0 601Z" fill="#ff0000"></path></svg>