<svg id="visual" viewBox="0 0 900 600" width="900" height="600" xmlns="http://www.w3.org/2000/svg" xmlns:xlink="http://www.w3.org/1999/xlink" version="1.1"><path d="M0 409L21.5 413.7C43 418.3 86 427.7 128.8 431.5C171.7 435.3 214.3 433.7 257.2 421.5C300 409.3 343 386.7 385.8 374.3C428.7 362 471.3 360 514.2 369.5C557 379 600 400 642.8 413.5C685.7 427 728.3 433 771.2 432C814 431 857 423 878.5 419L900 415L900 601L878.5 601C857 601 814 601 771.2 601C728.3 601 685.7 601 642.8 601C600 601 557 601 514.2 601C471.3 601 428.7 601 385.8 601C343 601 300 601 257.2 601C214.3 601 171.7 601 128.8 601C86 601 43 601 21.5 601L0 601Z" fill="#ffed00"></path><path d="M0 544L21.5 541.2C43 538.3 86 532.7 128.8 518C171.7 503.3 214.3 479.7 257.2 479C300 478.3 343 500.7 385.8 508C428.7 515.3 471.3 507.7 514.2 497.2C557 486.7 600 473.3 642.8 466.3C685.7 459.3 728.3 458.7 771.2 458.3C814 458 857 458 878.5 458L900 458L900 601L878.5 601C857 601 814 601 771.2 601C728.3 601 685.7 601 642.8 601C600 601 557 601 514.2 601C471.3 601 428.7 601 385.8 601C343 601 300 601 257.2 601C214.3 601 171.7 601 128.8 601C86 601 43 601 21.5 601L0 601Z" fill="#ff0000"></path></svg>